{"title":"Alone for Christmas 2013 DVD9rip English Klam","uid":9295844,"size":1730235665,"categoryP":"video","categoryS":"movies","magnet":"?xt=urn:btih:62a3209aec395dbfdfd9065ac523a1d326780ce3&amp;dn=Alone+for+Christmas+2013+DVD9rip+English+Klam&amp;tr=udp%3A%2F%2Ftracker.openbittorrent.com%3A80&amp;tr=udp%3A%2F%2Fopen.demonii.com%3A1337&amp;tr=udp%3A%2F%2Ftracker.coppersurfer.tk%3A6969&amp;tr=udp%3A%2F%2Fexodus.desync.com%3A6969","seeders":0,"leechers":1,"uploader":"Klambake","files":-1,"time":1386152462,"description":"With: Joe Bohn, Norma Burgess and Davis Cleveland\nHet zal je maar gebeuren! Je baasje gaan met de kerstdagen op bezoek bij oma en opa, en ze laten jou achter in het grote huis omdat je stout geweest bent! Als je dan ook nog inbrekers op pad zijn die het in de buurt gemunt hebben op kerstgeschenken in de leegstaande huizen, dan heb je de poppen aan het dansen. Maar onze held BOne weet wel raad met deze boeven. Als een echte waakhond en met de hulp van wat vrienden, zet hij alles op alles om de boeven tegen te houden.\n\nWhen a family visits Grandma's house on Christmas Eve, they leave their dog at home alone. And when burglars try to take the ...\n &lt;a href=&quot;\nhttp://www.imdb.com/title/tt3120508&quot; rel=&quot;nofollow&quot; target=&quot;_NEW&quot;&gt;\nhttp://www.imdb.com/title/tt3120508&lt;/a&gt;\n\n--------------------- Dutch Friends 4ever ---------------------\n---------------------------------------------------------------\n- Bezoek ook eens mijn vrienden op: &lt;a href=&quot; http://www.Film-Test.nl&quot; rel=&quot;nofollow&quot; target=&quot;_NEW&quot;&gt; http://www.Film-Test.nl&lt;/a&gt; --\n----- voor mijn Nederlandse Sync. ondertitels ---- en meer ----\n------- http://www.Film-Test.nl ---- Over Films en meer -------\n---------------------------------------------------------------\n\nGeneral:\n\nComplete name                    : Alone for XmasAlone for Christmas.avi\nFormat                           : AVI\nFormat/Info                      : Audio Video Interleave\nFile size                        : 1.61 GiB\nDuration                         : 1h 23mn\nOverall bit rate                 : 2 747 Kbps\n\nVideo:\n\nFormat                           : MPEG-4 Visual\nFormat profile                   : Simple@L3\nFormat settings, BVOP            : No\nFormat settings, QPel            : No\nFormat settings, GMC             : No warppoints\nFormat settings, Matrix          : Default (H.263)\nCodec ID                         : XVID\nCodec ID/Hint                    : XviD\nDuration                         : 1h 23mn\nBit rate                         : 2 288 Kbps\nWidth                            : 704 pixels\nHeight                           : 396 pixels\nDisplay aspect ratio             : 16:9\nFrame rate                       : 25.000 fps\nColor space                      : YUV\nChroma subsampling               : 4:2:0\nBit depth                        : 8 bits\nScan type                        : Progressive\nCompression mode                 : Lossy\nBits/(Pixel*Frame)               : 0.328\nStream size                      : 1.34 GiB (83%)\nWriting library                  : XviD 1.1.2 (UTC 2006-11-01)\n\nAudio:\n\nFormat                           : AC-3\nFormat/Info                      : Audio Coding 3\nMode extension                   : CM (complete main)\nCodec ID                         : 2000\nDuration                         : 1h 23mn\nBit rate mode                    : Constant\nBit rate                         : 448 Kbps\nChannel(s)                       : 6 channels\nChannel positions                : Front: L C R, Side: L R, LFE\nSampling rate                    : 48.0 KHz\nBit depth                        : 16 bits\nCompression mode                 : Lossy\nStream size                      : 269 MiB (16%)\nAlignment                        : Aligned on interleaves\nInterleave, duration             : 32 ms (0.80 video frame)\nInterleave, preload duration     : 1056 ms","torrent":{"xt":"urn:btih:62a3209aec395dbfdfd9065ac523a1d326780ce3","amp;dn":"Alone+for+Christmas+2013+DVD9rip+English+Klam","amp;tr":["udp%3A%2F%2Ftracker.openbittorrent.com%3A80","udp%3A%2F%2Fopen.demonii.com%3A1337","udp%3A%2F%2Ftracker.coppersurfer.tk%3A6969","udp%3A%2F%2Fexodus.desync.com%3A6969"],"infoHash":"62a3209aec395dbfdfd9065ac523a1d326780ce3","infoHashBuffer":{"type":"Buffer","data":[98,163,32,154,236,57,93,191,223,217,6,90,197,35,161,211,38,120,12,227]},"announce":[],"urlList":[]}}